{
	"asset":{
		"generator":"Khronos glTF Blender I/O v4.0.44",
		"version":"2.0"
	},
	"scene":0,
	"scenes":[
		{
			"name":"Scene",
			"nodes":[
				0
			]
		}
	],
	"nodes":[
		{
			"mesh":0,
			"name":"Cube",
			"scale":[
				0.7263974547386169,
				1,
				4.858047008514404
			],
			"translation":[
				-0.7385082244873047,
				0.08929409086704254,
				0
			]
		}
	],
	"materials":[
		{
			"doubleSided":true,
			"name":"Material.001",
			"pbrMetallicRoughness":{
				"baseColorFactor":[
					0.07855043560266495,
					0.08418605476617813,
					0.12547311186790466,
					1
				],
				"metallicFactor":0.06578947603702545,
				"roughnessFactor":0.2894740104675293
			}
		}
	],
	"meshes":[
		{
			"name":"Cube.005",
			"primitives":[
				{
					"attributes":{
						"POSITION":0,
						"NORMAL":1,
						"TEXCOORD_0":2
					},
					"indices":3,
					"material":0
				}
			]
		}
	],
	"accessors":[
		{
			"bufferView":0,
			"componentType":5126,
			"count":2021,
			"max":[
				3.998413562774658,
				1.2377747297286987,
				0.740476131439209
			],
			"min":[
				-1.965070128440857,
				-0.7430723309516907,
				-0.9358134865760803
			],
			"type":"VEC3"
		},
		{
			"bufferView":1,
			"componentType":5126,
			"count":2021,
			"type":"VEC3"
		},
		{
			"bufferView":2,
			"componentType":5126,
			"count":2021,
			"type":"VEC2"
		},
		{
			"bufferView":3,
			"componentType":5123,
			"count":2841,
			"type":"SCALAR"
		}
	],
	"bufferViews":[
		{
			"buffer":0,
			"byteLength":24252,
			"byteOffset":0,
			"target":34962
		},
		{
			"buffer":0,
			"byteLength":24252,
			"byteOffset":24252,
			"target":34962
		},
		{
			"buffer":0,
			"byteLength":16168,
			"byteOffset":48504,
			"target":34962
		},
		{
			"buffer":0,
			"byteLength":5682,
			"byteOffset":64672,
			"target":34963
		}
	],
	"buffers":[
		{
			"byteLength":70356,
			"uri":"car.bin"
		}
	]
}
