{
	"asset":{
		"generator":"Khronos glTF Blender I/O v4.0.44",
		"version":"2.0"
	},
	"scene":0,
	"scenes":[
		{
			"name":"Scene",
			"nodes":[
				0
			]
		}
	],
	"nodes":[
		{
			"mesh":0,
			"name":"Cube",
			"scale":[
				0.7263974547386169,
				1,
				4.858047008514404
			],
			"translation":[
				-0.7385082244873047,
				0.08929409086704254,
				0
			]
		}
	],
	"materials":[
		{
			"doubleSided":true,
			"name":"Material.001",
			"pbrMetallicRoughness":{
				"baseColorFactor":[
					0.07855043560266495,
					0.08418605476617813,
					0.12547311186790466,
					1
				],
				"metallicFactor":0.06578947603702545,
				"roughnessFactor":0.2894740104675293
			}
		}
	],
	"meshes":[
		{
			"name":"Cube.005",
			"primitives":[
				{
					"attributes":{
						"POSITION":0,
						"NORMAL":1,
						"TEXCOORD_0":2
					},
					"indices":3,
					"material":0
				}
			]
		}
	],
	"accessors":[
		{
			"bufferView":0,
			"componentType":5126,
			"count":32328,
			"max":[
				3.9916467666625977,
				1.2158867120742798,
				0.7392338514328003
			],
			"min":[
				-1.9294934272766113,
				-0.718003511428833,
				-0.9367255568504333
			],
			"type":"VEC3"
		},
		{
			"bufferView":1,
			"componentType":5126,
			"count":32328,
			"type":"VEC3"
		},
		{
			"bufferView":2,
			"componentType":5126,
			"count":32328,
			"type":"VEC2"
		},
		{
			"bufferView":3,
			"componentType":5123,
			"count":45456,
			"type":"SCALAR"
		}
	],
	"bufferViews":[
		{
			"buffer":0,
			"byteLength":387936,
			"byteOffset":0,
			"target":34962
		},
		{
			"buffer":0,
			"byteLength":387936,
			"byteOffset":387936,
			"target":34962
		},
		{
			"buffer":0,
			"byteLength":258624,
			"byteOffset":775872,
			"target":34962
		},
		{
			"buffer":0,
			"byteLength":90912,
			"byteOffset":1034496,
			"target":34963
		}
	],
	"buffers":[
		{
			"byteLength":1125408,
			"uri":"car.bin"
		}
	]
}
